# xmcd
#
# Track frame offsets: 
#        183
#        8925
#        20635
#        34555
#        44030
#        53483
#        63308
#        79925
#        95660
#        107235
#        121248
#        132000
#        142133
#        154813
#        165698
#        178320
#
# Disc length: 2539 seconds
#
# Revision: 2
# Processed by: cddbd v1.4PL0 Copyright (c) Steve Scherf et al.
# Submitted via: ExactAudioCopy v0.90b4
#
DISCID=de09e910
DTITLE=Various Artist - Country Festival
DYEAR=1900
DGENRE=
TTITLE0=Conway Twitty - Blue Is The Way I Feel
TTITLE1=Patsy Cline - I've Loved And Lost Again
TTITLE2=Willie Nelson - Home Is Where You're Happy
TTITLE3=Faron Young - I Can't Help It
TTITLE4=George Jones - Worlds Worst Loser
TTITLE5=Donna Fargo - Sticks And Stones
TTITLE6=Gene Parsons - Little Jewels
TTITLE7=Ray Pillow - How Do I Hide From A Memory
TTITLE8=Johnny Paycheck - I Don't Need To Know That Right Now
TTITLE9=Freddy Fender - Baby, I Want To Love You
TTITLE10=Stonewall Jackson - Promises And Hearts
TTITLE11=Don Williams - Take My Hand For A While
TTITLE12=Gram Parson and Emmy Lou Harris - That's All It Took
TTITLE13=Dolly Parton - It Wasn't God Who Made Honky Tonk Angels
TTITLE14=Merle Travis - Gamblers Guitar
TTITLE15=Oakridge Boys - Time Has Made A Change In Me
EXTD=
EXTT0=
EXTT1=
EXTT2=
EXTT3=
EXTT4=
EXTT5=
EXTT6=
EXTT7=
EXTT8=
EXTT9=
EXTT10=
EXTT11=
EXTT12=
EXTT13=
EXTT14=
EXTT15=
PLAYORDER=
